<svg id="Group_3" data-name="Group 3" xmlns="http://www.w3.org/2000/svg" width="140.411" height="43.811" viewBox="0 0 140.411 43.811">
  <path id="Path_2" data-name="Path 2" d="M32.707,23.653c0,9.179-6.144,16.1-14.659,16.1-8.545,0-14.714-6.922-14.714-16.1V0H0V23.653C0,34.734,7.759,43.089,18.048,43.089c10.258,0,17.993-8.355,17.993-19.436V0H32.707Z" fill="#0f1011"/>
  <path id="Path_3" data-name="Path 3" d="M243.688,60.128c-4.472,0-7.66,2.041-9.356,5.945V60.851h-3.154V91.893h3.214V77.7c0-6.521,1.6-14.3,9.236-14.3a14.129,14.129,0,0,1,2.857.352l.557.116v-3.43l-.387-.065a18.023,18.023,0,0,0-2.967-.246" transform="translate(-187.641 -48.804)" fill="#0f1011"/>
  <path id="Path_4" data-name="Path 4" d="M358.856,11.324c-5.6,0-10.222,2.435-12.549,6.482V0h-3.214V43.089h3.214V37.425c2.277,3.94,6.969,6.386,12.549,6.386,8.926,0,15.159-6.68,15.159-16.244s-6.233-16.244-15.159-16.244m11.826,16.244c0,7.779-5.012,13.211-12.187,13.211-7.361,0-12.307-5.309-12.307-13.211s4.946-13.211,12.307-13.211c7.175,0,12.187,5.432,12.187,13.211" transform="translate(-278.479)" fill="#0f1011"/>
  <path id="Path_5" data-name="Path 5" d="M544.406,25.673l13.565-13.626h-4.559L536.359,29.39V0h-3.214V43.089h3.214V33.722l5.822-5.822,12.044,15.189h4.2Z" transform="translate(-432.738 0)" fill="#0f1011"/>
  <path id="Path_6" data-name="Path 6" d="M693.093,4.941a4.941,4.941,0,0,1,9.881-.022,4.941,4.941,0,0,1-9.881.022m8.991-.022a4.051,4.051,0,1,0-8.1.022,4.051,4.051,0,1,0,8.1-.022m-5.741-2.493h1.713c1.135,0,1.869.468,1.869,1.469v.022a1.288,1.288,0,0,1-1,1.313l1.291,2.07H699.1l-1.18-1.891h-.512V7.3h-1.068Zm1.691,2.248c.557,0,.846-.244.846-.712V3.94c0-.512-.312-.69-.846-.69h-.623V4.674Z" transform="translate(-562.564 -0.001)" fill="#0f1011"/>
</svg>
