<svg xmlns="http://www.w3.org/2000/svg" xmlns:xlink="http://www.w3.org/1999/xlink" width="917.383" height="968" viewBox="0 0 917.383 968">
  <defs>
    <linearGradient id="linear-gradient" x1="-0.11" y1="0.977" x2="1.11" y2="0.023" gradientUnits="objectBoundingBox">
      <stop offset="0" stop-color="#3b517d"/>
      <stop offset="1" stop-color="#0f1011"/>
    </linearGradient>
    <linearGradient id="linear-gradient-2" x1="0.123" y1="1.11" x2="0.877" y2="-0.11" xlink:href="#linear-gradient"/>
    <linearGradient id="linear-gradient-3" x1="-0.11" y1="1.03" x2="1.11" y2="-0.03" xlink:href="#linear-gradient"/>
    <filter id="Shape_13" x="189.183" y="202.538" width="728.2" height="728.62" filterUnits="userSpaceOnUse">
      <feOffset dx="5.142" dy="6.128" input="SourceAlpha"/>
      <feGaussianBlur stdDeviation="7.5" result="blur"/>
      <feFlood flood-opacity="0.212"/>
      <feComposite operator="in" in2="blur"/>
      <feComposite in="SourceGraphic"/>
    </filter>
  </defs>
  <g id="Shape" transform="translate(0.001)">
    <circle id="Ellipse_2" data-name="Ellipse 2" cx="109.5" cy="109.5" r="109.5" transform="translate(130 749)" fill="#3b517d"/>
    <path id="Shape_9" data-name="Shape 9" d="M875,113.491A767.873,767.873,0,0,1,835.333,357.94c-70.091,209.286-227.721,378.366-429.348,463.7A764.523,764.523,0,0,1,107.238,882q-7.4,0-14.805-.146A771.664,771.664,0,0,1,0,874.558V0H866.671A772.629,772.629,0,0,1,875,113.491Z" fill="#0f1011"/>
    <path id="Shape_12" data-name="Shape 12" d="M804,0a272.723,272.723,0,0,1-27.078,31.531L591.851,216.7,244.143,564.583l-47.012,47.036a271.222,271.222,0,0,1-73.466,52.413A271.88,271.88,0,0,1,0,691.25V39.388L39.367,0Z" fill="#0f1011" opacity="0.341"/>
    <path id="Shape_10" data-name="Shape 10" d="M875,113.491A767.762,767.762,0,0,1,835.327,357.94c-70.1,209.286-227.758,378.366-429.418,463.7A764.754,764.754,0,0,1,107.113,882q-7.4,0-14.807-.146a271.847,271.847,0,0,1,69.56-265.917l81.243-81.309,318.5-318.755L741.566,35.767A271.762,271.762,0,0,1,785.614,0H866.67A772.519,772.519,0,0,1,875,113.491Z" opacity="0.341" fill="url(#linear-gradient)"/>
    <path id="Shape_11" data-name="Shape 11" d="M603,0,358.664,244.438C260.725,342.416,106.622,350,0,267.188V0Z" opacity="0.141" fill="url(#linear-gradient-2)"/>
    <g transform="matrix(1, 0, 0, 1, 0, 0)" filter="url(#Shape_13)">
      <ellipse id="Shape_13-2" data-name="Shape 13" cx="341.6" cy="341.81" rx="341.6" ry="341.81" transform="translate(206.54 218.91)" fill="url(#linear-gradient-3)"/>
    </g>
  </g>
</svg>
