<svg id="U_llena" data-name="U llena" xmlns="http://www.w3.org/2000/svg" xmlns:xlink="http://www.w3.org/1999/xlink" width="217.977" height="219.355" viewBox="0 0 217.977 219.355">
  <defs>
    <linearGradient id="linear-gradient" x1="0.5" y1="1" x2="0.5" gradientUnits="objectBoundingBox">
      <stop offset="0" stop-color="#ebebeb"/>
      <stop offset="1" stop-color="#7f8288"/>
    </linearGradient>
    <linearGradient id="linear-gradient-2" x1="0.5" y1="1" x2="0.5" gradientUnits="objectBoundingBox">
      <stop offset="0" stop-color="#d9dddb"/>
      <stop offset="0.02" stop-color="#d5d9d7"/>
      <stop offset="0.28" stop-color="#a6aaac"/>
      <stop offset="0.48" stop-color="#898c92"/>
      <stop offset="0.59" stop-color="#7f8288"/>
      <stop offset="0.72" stop-color="#787b80"/>
      <stop offset="0.91" stop-color="#676a6c"/>
      <stop offset="1" stop-color="#5e6061"/>
    </linearGradient>
    <linearGradient id="linear-gradient-3" x1="-0.043" y1="0.362" x2="0.9" y2="1.033" xlink:href="#linear-gradient-2"/>
    <linearGradient id="linear-gradient-4" x1="0.229" y1="0.301" x2="0.763" y2="0.712" gradientUnits="objectBoundingBox">
      <stop offset="0" stop-color="#fff"/>
      <stop offset="1" stop-color="#7f8288"/>
    </linearGradient>
  </defs>
  <path id="Path_7" data-name="Path 7" d="M184.28,41.92V175.486L130.9,188.609l39.663-139.64Z" transform="translate(-128.667 -38.647)" fill="url(#linear-gradient)"/>
  <path id="Path_8" data-name="Path 8" d="M184.28,373.71l53.38,66.415L217.643,453.82,130.9,386.833Z" transform="translate(-128.667 -236.872)" fill="url(#linear-gradient-2)"/>
  <path id="Path_9" data-name="Path 9" d="M528.99,41.92V175.486l53.38,13.123-40.4-139.64Z" transform="translate(-366.622 -38.647)" fill="url(#linear-gradient-3)"/>
  <path id="Path_10" data-name="Path 10" d="M449.676,373.71,396.3,440.125l20.016,13.695,86.739-66.986Z" transform="translate(-287.308 -236.872)" fill="url(#linear-gradient-4)"/>
  <path id="Path_11" data-name="Path 11" d="M287.718,37.063l12.973,7.049,40.4,139.64-86.739,66.986-20.016-13.7,53.38-66.414V37.063m-106.756,0V170.628l53.38,66.415-20.016,13.7-86.739-66.986,39.659-139.64,13.717-7.049M285.775,33.79V169.944l-51.433,63.991-51.433-63.991V33.875l-2.832,1.457L166.36,42.381l-.752.386-.229.813-39.667,139.64-.362,1.268,1.042.805,86.739,66.986,1.118.866,1.167-.8,18.918-12.942,18.918,12.942,1.167.8,1.118-.866,86.739-66.986,1.05-.809-.37-1.272L302.562,43.568l-.225-.781-.716-.386-12.973-7.049-2.872-1.562Z" transform="translate(-125.35 -33.79)" fill="#132630"/>
</svg>
