<svg xmlns="http://www.w3.org/2000/svg" width="51.87" height="52.178" viewBox="0 0 51.87 52.178">
  <path id="U_transparente" data-name="U transparente" d="M1.7,35.9,13.065,33.11,25.2,48.2,21.2,50.932ZM26.665,48.2,38.805,33.11,50.155,35.9,30.672,50.945ZM39.113,32.159V1.688l2.157,1.166,9.3,32.105ZM10.425,2.868l2.332-1.206V32.146L1.3,34.96ZM38.109,0V32.373L25.928,47.5,13.761,32.387V.027L9.567,2.171.174,35.241l-.174.6.456.362,20.7,15.972,4.77-3.269,4.77,3.269L51.4,36.206l.469-.362-.174-.6L42.169,2.372l-.053-.2Z" fill="#0f1011"/>
</svg>
